<mxfile host="65bd71144e">
    <diagram id="FPNUS5MQhK2XkHr9uts5" name="Page-1">
        <mxGraphModel dx="1762" dy="1378" grid="0" gridSize="10" guides="0" tooltips="1" connect="1" arrows="1" fold="1" page="0" pageScale="1" pageWidth="827" pageHeight="1169" math="0" shadow="0">
            <root>
                <mxCell id="0"/>
                <mxCell id="1" parent="0"/>
                <mxCell id="36" value="&amp;nbsp; &amp;nbsp;OCP Cluster hosting ArgoCD" style="rounded=0;whiteSpace=wrap;html=1;verticalAlign=top;align=left;fillColor=default;" parent="1" vertex="1">
                    <mxGeometry x="120" y="-40" width="1170" height="490" as="geometry"/>
                </mxCell>
                <mxCell id="37" value="&amp;nbsp; &amp;nbsp;Namespace: &amp;lt;argoapp-namespace&amp;gt;" style="rounded=0;whiteSpace=wrap;html=1;dashed=1;dashPattern=8 8;verticalAlign=top;align=left;fillColor=none;" parent="1" vertex="1">
                    <mxGeometry x="148" y="20" width="1100" height="410" as="geometry"/>
                </mxCell>
                <mxCell id="33" value="&amp;nbsp; &amp;nbsp;OCP Cluster: MAS" style="rounded=0;whiteSpace=wrap;html=1;align=left;verticalAlign=top;fillColor=default;" parent="1" vertex="1">
                    <mxGeometry x="680" y="490" width="1030" height="270" as="geometry"/>
                </mxCell>
                <mxCell id="34" value="&amp;nbsp; &amp;nbsp;Namespace: openshift-marketplace" style="rounded=0;whiteSpace=wrap;html=1;dashed=1;dashPattern=8 8;verticalAlign=top;align=left;fillColor=none;" parent="1" vertex="1">
                    <mxGeometry x="950" y="525" width="209" height="200" as="geometry"/>
                </mxCell>
                <mxCell id="35" value="&amp;nbsp; &amp;nbsp;Namespace: mas-xxx-sls" style="rounded=0;whiteSpace=wrap;html=1;dashed=1;dashPattern=8 8;verticalAlign=top;align=left;fillColor=none;" parent="1" vertex="1">
                    <mxGeometry x="1460" y="525" width="200" height="200" as="geometry"/>
                </mxCell>
                <mxCell id="56" value="&amp;nbsp; &amp;nbsp;ArgoCD Project: &lt;font color=&quot;#33ff33&quot;&gt;&amp;lt;argo-project-rootapps&amp;gt;&lt;/font&gt;" style="rounded=0;whiteSpace=wrap;html=1;fillColor=#4D4D4D;strokeColor=none;fontColor=#ffffff;align=left;verticalAlign=top;dashed=1;dashPattern=8 8;" parent="1" vertex="1">
                    <mxGeometry x="170" y="50" width="1040" height="150" as="geometry"/>
                </mxCell>
                <mxCell id="38" value="&amp;nbsp; &amp;nbsp;Namespace: mas-xxx-core" style="rounded=0;whiteSpace=wrap;html=1;dashed=1;dashPattern=8 8;verticalAlign=top;align=left;fillColor=none;" parent="1" vertex="1">
                    <mxGeometry x="1220" y="525" width="200" height="200" as="geometry"/>
                </mxCell>
                <mxCell id="57" value="&amp;nbsp; &amp;nbsp;ArgoCD Project: &lt;font color=&quot;#3399ff&quot;&gt;&amp;lt;argo-project-apps&amp;gt;&lt;/font&gt;" style="rounded=0;whiteSpace=wrap;html=1;dashed=1;dashPattern=8 8;fillColor=#4D4D4D;strokeColor=none;fontColor=#ffffff;align=left;verticalAlign=top;" parent="1" vertex="1">
                    <mxGeometry x="170" y="240" width="1040" height="150" as="geometry"/>
                </mxCell>
                <mxCell id="50" style="edgeStyle=elbowEdgeStyle;rounded=0;html=1;exitX=1;exitY=0.5;exitDx=0;exitDy=0;strokeColor=#00F731;" parent="1" source="23" target="28" edge="1">
                    <mxGeometry relative="1" as="geometry"/>
                </mxCell>
                <mxCell id="59" style="edgeStyle=elbowEdgeStyle;rounded=0;html=1;exitX=1;exitY=0.5;exitDx=0;exitDy=0;strokeColor=#00F731;" parent="1" source="6" target="65" edge="1">
                    <mxGeometry relative="1" as="geometry">
                        <Array as="points">
                            <mxPoint x="930" y="490"/>
                            <mxPoint x="940" y="470"/>
                            <mxPoint x="950" y="470"/>
                        </Array>
                    </mxGeometry>
                </mxCell>
                <mxCell id="6" value="&amp;lt;Application&amp;gt;&lt;br&gt;operator-catalog" style="rounded=0;whiteSpace=wrap;html=1;fillColor=#d80073;strokeColor=#A50040;fontColor=#ffffff;" parent="1" vertex="1">
                    <mxGeometry x="684" y="252.5" width="130" height="55" as="geometry"/>
                </mxCell>
                <mxCell id="55" style="edgeStyle=elbowEdgeStyle;rounded=0;html=1;exitX=1;exitY=0.5;exitDx=0;exitDy=0;strokeColor=#00F731;" parent="1" source="9" target="12" edge="1">
                    <mxGeometry relative="1" as="geometry"/>
                </mxCell>
                <mxCell id="28" value="&amp;lt;Application&amp;gt;&lt;br&gt;db2u" style="rounded=0;whiteSpace=wrap;html=1;fillColor=#d80073;strokeColor=#A50040;fontColor=#ffffff;" parent="1" vertex="1">
                    <mxGeometry x="684" y="320" width="130" height="50" as="geometry"/>
                </mxCell>
                <mxCell id="69" style="edgeStyle=elbowEdgeStyle;shape=connector;rounded=0;html=1;labelBackgroundColor=default;strokeColor=#00F731;fontFamily=Helvetica;fontSize=11;fontColor=#3399FF;endArrow=classic;" parent="1" source="12" target="66" edge="1">
                    <mxGeometry relative="1" as="geometry"/>
                </mxCell>
                <mxCell id="12" value="&amp;lt;Application&amp;gt;&lt;br&gt;suite" style="rounded=0;whiteSpace=wrap;html=1;fillColor=#d80073;strokeColor=#A50040;fontColor=#ffffff;" parent="1" vertex="1">
                    <mxGeometry x="1040" y="320" width="130" height="50" as="geometry"/>
                </mxCell>
                <mxCell id="47" style="edgeStyle=none;html=1;fillColor=#e3c800;strokeColor=#00F731;" parent="1" source="2" target="3" edge="1">
                    <mxGeometry relative="1" as="geometry"/>
                </mxCell>
                <mxCell id="2" value="&amp;lt;Application&amp;gt;&lt;br&gt;account-root" style="rounded=0;whiteSpace=wrap;html=1;fillColor=#6a00ff;strokeColor=#3700CC;fontColor=#ffffff;align=center;" parent="1" vertex="1">
                    <mxGeometry x="180" y="110" width="120" height="50" as="geometry"/>
                </mxCell>
                <mxCell id="49" style="edgeStyle=elbowEdgeStyle;html=1;rounded=0;exitX=1;exitY=0.5;exitDx=0;exitDy=0;strokeColor=#00F731;" parent="1" source="23" target="6" edge="1">
                    <mxGeometry relative="1" as="geometry"/>
                </mxCell>
                <mxCell id="51" style="edgeStyle=elbowEdgeStyle;rounded=0;html=1;strokeColor=#00F731;" parent="1" source="3" target="24" edge="1">
                    <mxGeometry relative="1" as="geometry"/>
                </mxCell>
                <mxCell id="3" value="&amp;lt;ApplicationSet&amp;gt;&lt;br&gt;cluster-appset" style="rounded=0;whiteSpace=wrap;html=1;fillColor=#6d8764;strokeColor=#3A5431;fontColor=#ffffff;" parent="1" vertex="1">
                    <mxGeometry x="330" y="110" width="130" height="50" as="geometry"/>
                </mxCell>
                <mxCell id="53" style="edgeStyle=elbowEdgeStyle;rounded=0;html=1;strokeColor=#00F731;" parent="1" source="8" target="10" edge="1">
                    <mxGeometry relative="1" as="geometry"/>
                </mxCell>
                <mxCell id="54" style="edgeStyle=elbowEdgeStyle;rounded=0;html=1;exitX=1;exitY=0.5;exitDx=0;exitDy=0;strokeColor=#00F731;" parent="1" source="9" target="11" edge="1">
                    <mxGeometry relative="1" as="geometry"/>
                </mxCell>
                <mxCell id="8" value="&amp;lt;ApplicationSet&amp;gt;&lt;br&gt;instance-appset" style="rounded=0;whiteSpace=wrap;html=1;fillColor=#6d8764;strokeColor=#3A5431;fontColor=#ffffff;" parent="1" vertex="1">
                    <mxGeometry x="684" y="115.2" width="130" height="55" as="geometry"/>
                </mxCell>
                <mxCell id="70" style="edgeStyle=elbowEdgeStyle;shape=connector;rounded=0;html=1;labelBackgroundColor=default;strokeColor=#00F731;fontFamily=Helvetica;fontSize=11;fontColor=#3399FF;endArrow=classic;" parent="1" source="11" target="67" edge="1">
                    <mxGeometry relative="1" as="geometry">
                        <Array as="points">
                            <mxPoint x="1440" y="470"/>
                        </Array>
                    </mxGeometry>
                </mxCell>
                <mxCell id="11" value="&amp;lt;Application&amp;gt;&lt;br&gt;sls" style="rounded=0;whiteSpace=wrap;html=1;fillColor=#d80073;strokeColor=#A50040;fontColor=#ffffff;" parent="1" vertex="1">
                    <mxGeometry x="1040" y="252.5" width="130" height="47.5" as="geometry"/>
                </mxCell>
                <mxCell id="21" value="" style="group" parent="1" vertex="1" connectable="0">
                    <mxGeometry x="850" y="116.79" width="210" height="95" as="geometry"/>
                </mxCell>
                <mxCell id="9" value="cluster-root" style="rounded=0;whiteSpace=wrap;html=1;fillColor=#6a00ff;fontColor=#ffffff;strokeColor=#3700CC;" parent="21" vertex="1">
                    <mxGeometry x="10" y="8.636363636363637" width="130" height="51.81818181818181" as="geometry"/>
                </mxCell>
                <mxCell id="10" value="&amp;lt;Application&amp;gt;&lt;br&gt;instance-root" style="rounded=0;whiteSpace=wrap;html=1;fillColor=#6a00ff;fontColor=#ffffff;strokeColor=#3700CC;" parent="21" vertex="1">
                    <mxGeometry width="130" height="51.81818181818181" as="geometry"/>
                </mxCell>
                <mxCell id="22" value="" style="group" parent="1" vertex="1" connectable="0">
                    <mxGeometry x="500" y="110" width="140" height="60" as="geometry"/>
                </mxCell>
                <mxCell id="23" value="cluster-root" style="rounded=0;whiteSpace=wrap;html=1;fillColor=#6a00ff;fontColor=#ffffff;strokeColor=#3700CC;" parent="22" vertex="1">
                    <mxGeometry x="10" y="8.571428571428571" width="130" height="51.42857142857142" as="geometry"/>
                </mxCell>
                <mxCell id="24" value="&amp;lt;Application&amp;gt;&lt;br&gt;cluster-root" style="rounded=0;whiteSpace=wrap;html=1;fillColor=#6a00ff;fontColor=#ffffff;strokeColor=#3700CC;" parent="22" vertex="1">
                    <mxGeometry width="130" height="51.42857142857142" as="geometry"/>
                </mxCell>
                <mxCell id="52" style="edgeStyle=elbowEdgeStyle;rounded=0;html=1;strokeColor=#00F731;" parent="1" source="23" target="8" edge="1">
                    <mxGeometry relative="1" as="geometry"/>
                </mxCell>
                <mxCell id="58" value="&amp;nbsp; &amp;nbsp;Namespace: db2u" style="rounded=0;whiteSpace=wrap;html=1;dashed=1;dashPattern=8 8;verticalAlign=top;align=left;fillColor=none;" parent="1" vertex="1">
                    <mxGeometry x="755" y="525" width="165" height="200" as="geometry"/>
                </mxCell>
                <mxCell id="63" value="&amp;lt;Subscription&amp;gt;&lt;br&gt;ibm-db2u-operator" style="rounded=0;whiteSpace=wrap;html=1;" parent="1" vertex="1">
                    <mxGeometry x="770" y="600" width="130" height="70" as="geometry"/>
                </mxCell>
                <mxCell id="64" style="edgeStyle=elbowEdgeStyle;shape=connector;rounded=0;html=1;labelBackgroundColor=default;strokeColor=#00F731;fontFamily=Helvetica;fontSize=11;fontColor=default;endArrow=classic;" parent="1" source="28" target="63" edge="1">
                    <mxGeometry relative="1" as="geometry">
                        <Array as="points">
                            <mxPoint x="870" y="470"/>
                            <mxPoint x="840" y="485"/>
                        </Array>
                    </mxGeometry>
                </mxCell>
                <mxCell id="65" value="&amp;lt;CatalogSource&amp;gt;&lt;br&gt;ibm-operator-catalog" style="rounded=0;whiteSpace=wrap;html=1;" parent="1" vertex="1">
                    <mxGeometry x="989.5" y="600" width="130" height="70" as="geometry"/>
                </mxCell>
                <mxCell id="66" value="&amp;lt;Subscription&amp;gt;&lt;br&gt;ibm-mas-operator" style="rounded=0;whiteSpace=wrap;html=1;" parent="1" vertex="1">
                    <mxGeometry x="1250" y="590" width="130" height="70" as="geometry"/>
                </mxCell>
                <mxCell id="67" value="&amp;lt;Subscription&amp;gt;&lt;br&gt;ibm-sls" style="rounded=0;whiteSpace=wrap;html=1;" parent="1" vertex="1">
                    <mxGeometry x="1495" y="600" width="130" height="70" as="geometry"/>
                </mxCell>
            </root>
        </mxGraphModel>
    </diagram>
</mxfile>